<?xml version="1.0" encoding="utf-8"?>
<!-- Generator: Adobe Illustrator 25.0.0, SVG Export Plug-In . SVG Version: 6.00 Build 0)  -->
<svg version="1.1" id="Layer_1" xmlns="http://www.w3.org/2000/svg" xmlns:xlink="http://www.w3.org/1999/xlink" x="0px" y="0px"
	 viewBox="0 0 720 611.8" style="enable-background:new 0 0 720 611.8;" xml:space="preserve">
<style type="text/css">
	.st0{fill:#EC6608;}
</style>
<g>
	<g>
		<path d="M65.7,359.9l65.8,144h-31.4l-9.7-21.4H41l-9.7,21.4H0L65.7,359.9z M78.9,457.4l-13.1-29.9l-13.3,29.9H78.9z"/>
		<path d="M226.4,446.2v-86.3h29.1v86.4c0,15.9-5.7,29.5-17.1,40.8c-11.4,11.2-25.1,16.8-41.1,16.8c-16.1,0-29.9-5.6-41.3-16.8
			c-11.4-11.3-17.1-24.9-17.1-40.8v-86.4h29.1v86.3c0,15.6,13.3,28.7,29.1,28.7C213,474.9,226.4,461.6,226.4,446.2z"/>
		<path d="M310.9,359.9l24.6,42.8l24.7-42.8h33.2l-41.3,71.9l41.3,72.1h-33.2l-24.7-43l-24.6,43h-33.2l41.1-72.1l-41.1-71.9H310.9z"
			/>
		<path d="M418.7,359.9h29v144.1h-29V359.9z"/>
		<path d="M504.7,359.9v115.3h57.9v28.8h-86.9V359.9H504.7z"/>
		<path d="M698.8,381.1c14.1,14.1,21.2,31.1,21.2,50.9c0,19.9-7,36.8-21.2,50.9c-14.1,14-31,20.9-50.9,20.9
			c-19.9-0.1-36.8-7-50.9-20.9c-14.1-14.1-21.1-31-21.1-50.9c0-19.8,7-36.7,21.1-50.9c14.1-14.1,31.1-21.2,50.9-21.2
			C667.7,359.9,684.7,367,698.8,381.1z M617.4,401.3c-8.5,8.6-12.7,18.7-12.7,30.5c0,11.9,4.2,22.1,12.7,30.5
			c8.4,8.4,18.6,12.6,30.5,12.6c11.8,0,21.9-4.2,30.4-12.6c8.5-8.4,12.8-18.6,12.8-30.5c0-11.8-4.3-22-12.8-30.5
			c-8.5-8.4-18.6-12.7-30.4-12.7C635.9,388.7,625.7,392.9,617.4,401.3z"/>
	</g>
	<g>
		<path d="M21.6,611.2h-5.7v-43.9H0.4v-5.1h36.7v5.1H21.6V611.2z"/>
		<path d="M68.8,611.2v-23.7c0-3-0.7-5.2-2-6.7c-1.4-1.5-3.5-2.2-6.4-2.2c-3.9,0-6.7,1.1-8.5,3.1c-1.8,2.1-2.7,5.5-2.7,10.3v19.2
			h-5.6v-52.1h5.6v15.8c0,1.9-0.1,3.5-0.3,4.7h0.3c1.1-1.8,2.6-3.2,4.7-4.2c2-1,4.3-1.5,6.9-1.5c4.5,0,7.9,1.1,10.1,3.2
			c2.2,2.1,3.4,5.5,3.4,10.2v23.9H68.8z"/>
		<path d="M101.3,611.8c-5.4,0-9.7-1.7-12.8-5c-3.1-3.3-4.7-7.9-4.7-13.8c0-5.9,1.5-10.6,4.4-14.1c2.9-3.5,6.8-5.2,11.7-5.2
			c4.6,0,8.2,1.5,10.9,4.5c2.7,3,4,7,4,12v3.5H89.5c0.1,4.3,1.2,7.6,3.3,9.8c2.1,2.2,5,3.4,8.7,3.4c4,0,7.9-0.8,11.7-2.5v5
			c-2,0.8-3.8,1.5-5.6,1.8C105.9,611.7,103.7,611.8,101.3,611.8z M99.8,578.5c-2.9,0-5.3,1-7,2.9c-1.8,1.9-2.8,4.6-3.1,8h19.2
			c0-3.5-0.8-6.2-2.3-8.1C104.9,579.4,102.7,578.5,99.8,578.5z"/>
		<path d="M165.8,611.2v-23.7c0-3-0.7-5.2-2-6.7c-1.4-1.5-3.5-2.2-6.4-2.2c-3.8,0-6.7,1-8.4,3.1c-1.8,2.1-2.7,5.5-2.7,10.3v19.3
			h-5.6v-36.7h4.5l0.9,5h0.3c1.1-1.8,2.7-3.2,4.8-4.2c2.1-1,4.3-1.5,6.9-1.5c4.4,0,7.7,1.1,10,3.2c2.2,2.1,3.4,5.5,3.4,10.2v23.9
			H165.8z"/>
		<path d="M198.3,611.8c-5.4,0-9.7-1.7-12.8-5c-3.1-3.3-4.7-7.9-4.7-13.8c0-5.9,1.5-10.6,4.4-14.1c2.9-3.5,6.8-5.2,11.7-5.2
			c4.6,0,8.2,1.5,10.9,4.5c2.7,3,4,7,4,12v3.5h-25.3c0.1,4.3,1.2,7.6,3.3,9.8c2.1,2.2,5,3.4,8.7,3.4c4,0,7.9-0.8,11.7-2.5v5
			c-2,0.8-3.8,1.5-5.6,1.8C202.9,611.7,200.8,611.8,198.3,611.8z M196.8,578.5c-2.9,0-5.3,1-7,2.9c-1.8,1.9-2.8,4.6-3.1,8h19.2
			c0-3.5-0.8-6.2-2.3-8.1C201.9,579.4,199.7,578.5,196.8,578.5z"/>
		<path d="M230.1,592.4l-12.8-17.9h6.3l9.7,14.1l9.6-14.1h6.3l-12.8,17.9l13.4,18.8h-6.3l-10.3-14.9L223,611.2h-6.3L230.1,592.4z"/>
		<path d="M269,607.3c1,0,1.9-0.1,2.8-0.2c0.9-0.1,1.6-0.3,2.2-0.5v4.3c-0.6,0.3-1.5,0.5-2.7,0.7c-1.2,0.2-2.2,0.3-3.2,0.3
			c-7.1,0-10.6-3.7-10.6-11.2v-21.8h-5.3v-2.7l5.3-2.3l2.3-7.8h3.2v8.5h10.7v4.3h-10.7v21.6c0,2.2,0.5,3.9,1.6,5.1
			C265.8,606.7,267.2,607.3,269,607.3z"/>
		<path d="M304.8,611.2h-5.6v-52.1h5.6V611.2z"/>
		<path d="M332.1,611.8c-5.4,0-9.7-1.7-12.8-5c-3.1-3.3-4.7-7.9-4.7-13.8c0-5.9,1.5-10.6,4.4-14.1c2.9-3.5,6.8-5.2,11.7-5.2
			c4.6,0,8.2,1.5,10.9,4.5c2.7,3,4,7,4,12v3.5h-25.3c0.1,4.3,1.2,7.6,3.3,9.8c2.1,2.2,5,3.4,8.7,3.4c4,0,7.9-0.8,11.7-2.5v5
			c-2,0.8-3.8,1.5-5.6,1.8C336.6,611.7,334.5,611.8,332.1,611.8z M330.6,578.5c-2.9,0-5.3,1-7,2.9c-1.8,1.9-2.8,4.6-3.1,8h19.2
			c0-3.5-0.8-6.2-2.3-8.1C335.7,579.4,333.5,578.5,330.6,578.5z"/>
		<path d="M363.1,611.2l-13.9-36.7h6l7.9,21.8c1.8,5.1,2.8,8.4,3.1,9.9h0.3c0.2-1.2,1-3.6,2.3-7.3c1.3-3.7,4.2-11.8,8.8-24.3h6
			l-13.9,36.7H363.1z"/>
		<path d="M404.9,611.8c-5.4,0-9.7-1.7-12.8-5c-3.1-3.3-4.7-7.9-4.7-13.8c0-5.9,1.5-10.6,4.4-14.1c2.9-3.5,6.8-5.2,11.7-5.2
			c4.6,0,8.2,1.5,10.9,4.5c2.7,3,4,7,4,12v3.5h-25.3c0.1,4.3,1.2,7.6,3.3,9.8c2.1,2.2,5,3.4,8.7,3.4c4,0,7.9-0.8,11.7-2.5v5
			c-2,0.8-3.8,1.5-5.6,1.8C409.5,611.7,407.4,611.8,404.9,611.8z M403.4,578.5c-2.9,0-5.3,1-7,2.9c-1.8,1.9-2.8,4.6-3.1,8h19.2
			c0-3.5-0.8-6.2-2.3-8.1C408.5,579.4,406.3,578.5,403.4,578.5z"/>
		<path d="M433.4,611.2h-5.6v-52.1h5.6V611.2z"/>
		<path d="M480.1,573.9c4.8,0,8.6,1.6,11.2,4.9c2.7,3.3,4,8,4,14c0,6-1.3,10.7-4,14c-2.7,3.3-6.4,5-11.2,5c-2.4,0-4.6-0.4-6.5-1.3
			c-2-0.9-3.6-2.2-5-4.1h-0.4l-1.2,4.7h-4v-52.1h5.6v12.7c0,2.8-0.1,5.4-0.3,7.6h0.3C471.2,575.7,475,573.9,480.1,573.9z
			 M479.3,578.5c-3.8,0-6.5,1.1-8.2,3.3c-1.7,2.2-2.5,5.8-2.5,11c0,5.2,0.9,8.8,2.6,11.1c1.7,2.2,4.5,3.3,8.3,3.3
			c3.4,0,6-1.2,7.6-3.7c1.7-2.5,2.5-6.1,2.5-10.7c0-4.8-0.8-8.3-2.5-10.7C485.4,579.7,482.8,578.5,479.3,578.5z"/>
		<path d="M520.6,611.8c-5.4,0-9.7-1.7-12.8-5c-3.1-3.3-4.7-7.9-4.7-13.8c0-5.9,1.5-10.6,4.4-14.1c2.9-3.5,6.8-5.2,11.7-5.2
			c4.6,0,8.2,1.5,10.9,4.5c2.7,3,4,7,4,12v3.5h-25.3c0.1,4.3,1.2,7.6,3.3,9.8c2.1,2.2,5,3.4,8.7,3.4c4,0,7.9-0.8,11.7-2.5v5
			c-2,0.8-3.8,1.5-5.6,1.8C525.1,611.7,523,611.8,520.6,611.8z M519,578.5c-2.9,0-5.3,1-7,2.9c-1.8,1.9-2.8,4.6-3.1,8h19.2
			c0-3.5-0.8-6.2-2.3-8.1C524.2,579.4,521.9,578.5,519,578.5z"/>
		<path d="M558.2,611.8c-5.3,0-9.4-1.6-12.3-4.9c-2.9-3.3-4.4-7.9-4.4-13.9c0-6.1,1.5-10.9,4.4-14.2c3-3.3,7.2-5,12.6-5
			c1.8,0,3.5,0.2,5.3,0.6c1.8,0.4,3.1,0.8,4.2,1.3l-1.7,4.7c-1.2-0.5-2.6-0.9-4-1.2c-1.5-0.3-2.7-0.5-3.8-0.5
			c-7.5,0-11.2,4.8-11.2,14.3c0,4.5,0.9,8,2.7,10.4c1.8,2.4,4.5,3.6,8.1,3.6c3.1,0,6.2-0.7,9.4-2v4.9
			C565,611.2,561.9,611.8,558.2,611.8z"/>
		<path d="M581.7,592.4c1-1.4,2.4-3.1,4.4-5.4l11.9-12.6h6.6l-14.9,15.6l15.9,21.1h-6.7l-13-17.3l-4.2,3.6v13.7h-5.5v-52.1h5.5v27.6
			c0,1.2-0.1,3.1-0.3,5.7H581.7z"/>
		<path d="M643.8,592.8c0,6-1.5,10.7-4.5,14c-3,3.4-7.2,5-12.5,5c-3.3,0-6.2-0.8-8.7-2.3c-2.5-1.5-4.5-3.8-5.9-6.6
			c-1.4-2.9-2.1-6.3-2.1-10.1c0-6,1.5-10.6,4.5-14c3-3.3,7.1-5,12.5-5c5.1,0,9.2,1.7,12.2,5.1C642.3,582.3,643.8,587,643.8,592.8z
			 M615.9,592.8c0,4.7,0.9,8.3,2.8,10.7c1.9,2.5,4.6,3.7,8.3,3.7c3.6,0,6.4-1.2,8.3-3.7c1.9-2.4,2.8-6,2.8-10.7
			c0-4.7-0.9-8.2-2.8-10.6c-1.9-2.4-4.7-3.6-8.4-3.6c-3.6,0-6.4,1.2-8.2,3.6C616.8,584.5,615.9,588.1,615.9,592.8z"/>
		<path d="M678.7,611.2v-23.7c0-3-0.7-5.2-2-6.7c-1.4-1.5-3.5-2.2-6.4-2.2c-3.8,0-6.7,1-8.4,3.1c-1.8,2.1-2.7,5.5-2.7,10.3v19.3
			h-5.6v-36.7h4.5l0.9,5h0.3c1.1-1.8,2.7-3.2,4.8-4.2c2.1-1,4.3-1.5,6.9-1.5c4.4,0,7.7,1.1,10,3.2c2.2,2.1,3.4,5.5,3.4,10.2v23.9
			H678.7z"/>
		<path d="M719.4,601.2c0,3.4-1.3,6-3.8,7.9c-2.5,1.9-6.1,2.8-10.7,2.8c-4.9,0-8.7-0.8-11.4-2.3v-5.2c1.8,0.9,3.7,1.6,5.7,2.1
			c2,0.5,4,0.8,5.8,0.8c2.9,0,5.1-0.5,6.7-1.4c1.6-0.9,2.3-2.3,2.3-4.2c0-1.4-0.6-2.7-1.9-3.7c-1.2-1-3.7-2.2-7.2-3.6
			c-3.4-1.3-5.8-2.4-7.3-3.3c-1.4-0.9-2.5-2-3.2-3.2c-0.7-1.2-1.1-2.6-1.1-4.3c0-3,1.2-5.4,3.7-7.1c2.4-1.7,5.8-2.6,10-2.6
			c4,0,7.8,0.8,11.6,2.4l-2,4.5c-3.7-1.5-7-2.3-10-2.3c-2.6,0-4.6,0.4-6,1.2s-2,2-2,3.4c0,1,0.3,1.8,0.8,2.5c0.5,0.7,1.3,1.3,2.4,2
			c1.1,0.6,3.3,1.5,6.4,2.7c4.4,1.6,7.3,3.2,8.8,4.8C718.6,596.7,719.4,598.7,719.4,601.2z"/>
	</g>
	<g>
		<g>
			<polygon points="504,287.9 432,287.9 504,215.9 			"/>
			<path class="st0" d="M288,138.5l72,72v-61.2l-72-72V138.5z M221.4,143.9l72,72l61.1-0.1l-71.9-71.9H221.4z M432,0l-66.7,0l72,72
				l66.7-0.1L432,0z M293.4,71.9l72,72l61.1-0.1l-71.9-71.9L293.4,71.9z M216,216.1l72,71.7v-66.5l-72-72V216.1z M360,66.6l72,72
				V77.4l-72-72V66.6z"/>
		</g>
	</g>
	<g>
		<g>
			<g>
				<path d="M702.3,360.8c-9.7,0-17.6-7.9-17.6-17.6c0-9.7,7.9-17.6,17.6-17.6c9.7,0,17.6,7.9,17.6,17.6
					C719.9,352.9,712,360.8,702.3,360.8z M702.3,327.3c-8.8,0-15.9,7.1-15.9,15.9s7.1,15.9,15.9,15.9c8.8,0,15.9-7.1,15.9-15.9
					S711.1,327.3,702.3,327.3z"/>
			</g>
		</g>
		<g>
			<path d="M694.5,352.6V333h8.4c2.1,0,3.6,0.2,4.6,0.5c1,0.4,1.7,1,2.3,1.9c0.6,0.9,0.9,1.9,0.9,3.1c0,1.5-0.4,2.7-1.3,3.7
				c-0.9,1-2.2,1.6-3.9,1.8c0.9,0.5,1.6,1.1,2.1,1.7c0.6,0.6,1.3,1.7,2.3,3.2l2.4,3.8h-4.8l-2.9-4.3c-1-1.5-1.7-2.5-2.1-2.9
				c-0.4-0.4-0.8-0.7-1.2-0.8c-0.4-0.1-1.1-0.2-2-0.2h-0.8v8.2H694.5z M698.5,341.3h2.9c1.9,0,3.1-0.1,3.6-0.2
				c0.5-0.2,0.8-0.4,1.1-0.8c0.3-0.4,0.4-0.9,0.4-1.5c0-0.7-0.2-1.2-0.5-1.6c-0.4-0.4-0.9-0.7-1.5-0.8c-0.3,0-1.3-0.1-2.9-0.1h-3.1
				V341.3z"/>
		</g>
	</g>
</g>
</svg>
